<?xml version="1.0" standalone="no"?>
<!DOCTYPE svg PUBLIC "-//W3C//DTD SVG 20010904//EN"
 "http://www.w3.org/TR/2001/REC-SVG-20010904/DTD/svg10.dtd">
<svg version="1.0" xmlns="http://www.w3.org/2000/svg"
 width="1280.000000pt" height="640.000000pt" viewBox="0 0 1280.000000 640.000000"
 preserveAspectRatio="xMidYMid meet">
<metadata>
Created by potrace 1.15, written by Peter Selinger 2001-2017
</metadata>
<g transform="translate(0.000000,640.000000) scale(0.150000,-0.100000)"
fill="#FF0000" stroke="none">
<path d="M1345 5540 l-1340 -768 0 -1562 0 -1561 1346 -778 1347 -778 1351
781 1351 780 0 498 0 498 2250 0 2249 0 3 -717 c3 -803 -3 -734 76 -832 62
-76 81 -81 362 -81 140 0 261 5 283 11 47 13 112 78 143 144 l24 50 0 713 0
712 190 0 190 0 0 -696 c0 -513 3 -707 12 -737 16 -52 93 -136 154 -167 l49
-25 370 0 c367 0 370 0 413 23 59 32 119 88 145 136 22 41 22 43 25 752 l3
711 52 6 c96 10 166 44 238 116 109 109 153 220 153 386 0 78 -5 115 -23 168
-44 129 -141 244 -260 303 l-56 29 -3522 3 -3523 2 0 553 0 554 -1348 771
c-742 425 -1353 772 -1358 771 -5 0 -612 -346 -1349 -769z"/>
</g>
</svg>
