<?xml version="1.0" encoding="UTF-8" standalone="no"?>
<svg id="svg4153" xmlns:rdf="http://www.w3.org/1999/02/22-rdf-syntax-ns#" xmlns="http://www.w3.org/2000/svg" height="61.867mm" width="209.75mm" version="1.1" xmlns:cc="http://creativecommons.org/ns#" xmlns:dc="http://purl.org/dc/elements/1.1/" viewBox="0 0 743.21574 219.21294">
<g id="layer1" transform="translate(.27572 -351.31)">
<path id="path7" fill="#FF0000" d="m632.76 351.33c-22.279 0.26071-46.632 8.8599-57.711 29.555-6.1946 11.75-5.4542 25.956-12.65 37.344-4.3926 9.5781-13.532 16.235-23.871 17.99-17.191 3.6786-34.897 0.94264-52.3 2.314-157.25 2.8594-314.56 3.0468-471.79 5.2329-17.231 4.2742-20.511 33.326-3.4727 39.99 5.7035 2.1467 14.776-1.7 17.426 5.7148 1.9275 7.2694-0.19438 14.963 0.68816 22.381l-0.15496 43.289 40.77-0.92774c1.1614-13.109-0.29691-26.835 2.752-39.617 5.8222-5.4574 39.337-4.0066 43.555-2.123 5.0168 9.1598 2.4247 30.333 2.2402 41.768l36.248 0.41211c0.66017-12.399-1.1667-25.409 1.1484-37.65 6.2766-7.1074 42.138-3.3015 46.291-0.72657 3.8878 10.592 2.1893 27.838 2.3281 40.254 11.852-0.0937 23.704-0.1875 35.557-0.28125-0.2184-22.502-2.1296-45.179-1.3262-67.602 3.1067-6.6845 11.536-2.682 17.021-3.7613 91.962 0.15319 183.95-0.3889 275.89-0.12154 20.424 2.5996 35.287 20.621 41.573 39.167 7.0876 17.906 22.246 31.493 39.297 39.758 18.872 9.152 40.95 8.9504 60.044 0.41446 22.322-9.4295 41.945-25.31 55.598-45.269 20.896-35.086 19.74-80.82-1.8376-115.42-15.652-26.779-42.752-49.37-74.825-51.279-6.032-0.64891-12.339-0.88903-18.49-0.80906zm10.799 27.346c26.931 0.0166 49.142 21.161 59.246 44.758 13.775 30.027 8.1893 67.756-14.119 92.231-14.77 17.982-42.002 27.287-63.672 16.775-12.711-5.7748-18.318-21.319-14.453-34.322 2.362-11.272 10.74-20.255 13.178-31.359 1.2443-15.8-12.624-26.465-19.004-39.467-5.9628-12.127-3.691-28.099 7.1406-36.746 8.6072-7.6958 20.235-11.61 31.684-11.869z" fill-rule="evenodd"/>
</g>
</svg>
